<svg width="35" height="35" viewBox="0 0 35 35" fill="none" xmlns="http://www.w3.org/2000/svg">
<path d="M7.17773 6.15234H14.527C15.0033 8.48969 17.0748 10.2539 19.5508 10.2539H29.8047C30.371 10.2539 30.8301 9.7948 30.8301 9.22852V8.20312H33.9746C34.5409 8.20312 35 7.74402 35 7.17773V3.07617C35 2.50988 34.5409 2.05078 33.9746 2.05078H30.8301V1.02539C30.8301 0.459102 30.371 0 29.8047 0H19.5508C17.0748 0 15.0034 1.76422 14.527 4.10156H7.17773C3.21993 4.10156 0 7.32149 0 11.2793C0 15.2371 3.21993 18.457 7.17773 18.457H27.7539C30.57 18.457 32.9492 20.8362 32.9492 23.6523C32.9492 26.4685 30.57 28.8477 27.7539 28.8477H20.473C19.9967 26.5103 17.9252 24.7461 15.4492 24.7461H5.12695C4.56066 24.7461 4.10156 25.2052 4.10156 25.7715V26.7969H1.02539C0.459102 26.7969 0 27.256 0 27.8223V31.9238C0 32.4901 0.459102 32.9492 1.02539 32.9492H4.10156V33.9746C4.10156 34.5409 4.56066 35 5.12695 35H15.4492C17.9252 35 19.9966 33.2358 20.473 30.8984H27.7539C31.7166 30.8984 35 27.627 35 23.6523C35 19.6896 31.7285 16.4062 27.7539 16.4062H7.17773C4.35073 16.4062 2.05078 14.1063 2.05078 11.2793C2.05078 8.4523 4.35073 6.15234 7.17773 6.15234ZM30.8301 4.10156H32.9492V6.15234H30.8301V4.10156ZM19.5508 2.05078H28.7793C28.7793 3.0625 28.7793 7.57935 28.7793 8.20312H19.5508C17.8546 8.20312 16.4746 6.82315 16.4746 5.12695C16.4746 3.43075 17.8546 2.05078 19.5508 2.05078ZM4.10156 30.8984H2.05078V28.8477H4.10156V30.8984ZM15.4492 32.9492H6.15234C6.15234 32.3265 6.15234 27.7996 6.15234 26.7969H15.4492C17.1454 26.7969 18.5254 28.1768 18.5254 29.873C18.5254 31.5692 17.1454 32.9492 15.4492 32.9492Z" fill="#F5C74D"/>
</svg>
