<svg width="36" height="36" viewBox="0 0 36 36" fill="none" xmlns="http://www.w3.org/2000/svg">
<path d="M30.3199 13.5371C30.0467 10.7564 28.7497 8.17657 26.6809 6.2986C24.612 4.42063 21.9191 3.37863 19.125 3.375H16.875C14.0809 3.37863 11.388 4.42063 9.31913 6.2986C7.25031 8.17657 5.95333 10.7564 5.68012 13.5371C4.44507 13.6265 3.2894 14.1793 2.44468 15.0847C1.59995 15.9901 1.12858 17.1813 1.125 18.4196V22.0804C1.12649 23.3847 1.64528 24.6351 2.56757 25.5574C3.48986 26.4797 4.74032 26.9985 6.04463 27H9C9.14774 27 9.29403 26.9709 9.43052 26.9144C9.56701 26.8578 9.69103 26.775 9.7955 26.6705C9.89996 26.566 9.98283 26.442 10.0394 26.3055C10.0959 26.169 10.125 26.0227 10.125 25.875V14.625C10.125 14.3266 10.0065 14.0405 9.7955 13.8295C9.58452 13.6185 9.29837 13.5 9 13.5H7.95262C8.22833 11.3271 9.28623 9.329 10.9284 7.87957C12.5706 6.43014 14.6846 5.62864 16.875 5.625H19.125C21.3154 5.62864 23.4294 6.43014 25.0716 7.87957C26.7138 9.329 27.7717 11.3271 28.0474 13.5H27C26.7016 13.5 26.4155 13.6185 26.2045 13.8295C25.9935 14.0405 25.875 14.3266 25.875 14.625V25.875C25.875 26.1734 25.9935 26.4595 26.2045 26.6705C26.4155 26.8815 26.7016 27 27 27H27.9653C27.7166 27.9632 27.1558 28.8168 26.3705 29.4274C25.5852 30.038 24.6197 30.3713 23.625 30.375H21.375V29.25C21.375 28.9516 21.2565 28.6655 21.0455 28.4545C20.8345 28.2435 20.5484 28.125 20.25 28.125C19.9516 28.125 19.6655 28.2435 19.4545 28.4545C19.2435 28.6655 19.125 28.9516 19.125 29.25V31.5C19.125 31.7984 19.2435 32.0845 19.4545 32.2955C19.6655 32.5065 19.9516 32.625 20.25 32.625H23.625C25.2245 32.6232 26.7714 32.0534 27.9899 31.0172C29.2084 29.981 30.0194 28.5458 30.2782 26.9674C31.5213 26.8875 32.6876 26.3383 33.541 25.431C34.3945 24.5237 34.8713 23.326 34.875 22.0804V18.4196C34.8714 17.1813 34.4 15.9901 33.5553 15.0847C32.7106 14.1793 31.5549 13.6265 30.3199 13.5371ZM7.875 24.75H6.04463C5.33678 24.7494 4.6581 24.4679 4.15757 23.9674C3.65705 23.4669 3.3756 22.7882 3.375 22.0804V18.4196C3.3756 17.7118 3.65705 17.0331 4.15757 16.5326C4.6581 16.0321 5.33678 15.7506 6.04463 15.75H7.875V24.75ZM32.625 22.0804C32.6244 22.7882 32.3429 23.4669 31.8424 23.9674C31.3419 24.4679 30.6632 24.7494 29.9554 24.75H28.125V15.75H29.9554C30.6632 15.7506 31.3419 16.0321 31.8424 16.5326C32.3429 17.0331 32.6244 17.7118 32.625 18.4196V22.0804Z" fill="#F5C74D"/>
</svg>
