<svg width="28" height="28" viewBox="0 0 28 28" fill="none" xmlns="http://www.w3.org/2000/svg">
<circle cx="14" cy="14" r="14" fill="#F5F5F5"/>
<g clip-path="url(#clip0_0_311)">
<path d="M18.5003 7.0946C18.5003 6.81846 18.2765 6.5946 18.0003 6.5946H16.0003C14.9835 6.5946 14.0084 6.99902 13.2895 7.7187C12.5707 8.43836 12.167 9.4143 12.167 10.4318V11.9341H10.667C10.3908 11.9341 10.167 12.158 10.167 12.4341V15.1039C10.167 15.38 10.3908 15.6039 10.667 15.6039H12.167V20.4434C12.167 20.7195 12.3909 20.9434 12.667 20.9434H15.3337C15.6098 20.9434 15.8337 20.7195 15.8337 20.4434V15.6039H17.3337C17.5631 15.6039 17.7632 15.4477 17.8188 15.225L18.4854 12.5553C18.5227 12.4059 18.4891 12.2477 18.3944 12.1264C18.2996 12.005 18.1543 11.9341 18.0003 11.9341H15.8337V10.4318C15.8337 10.3872 15.8514 10.3446 15.8827 10.3132C15.914 10.2819 15.9563 10.2644 16.0003 10.2644H18.0003C18.2765 10.2644 18.5003 10.0405 18.5003 9.76436V7.0946Z" stroke="black" stroke-opacity="0.8" stroke-linecap="round" stroke-linejoin="round"/>
</g>
<defs>
<clipPath id="clip0_0_311">
<rect width="16" height="16.0186" fill="white" transform="translate(6 5.75977)"/>
</clipPath>
</defs>
</svg>
