<svg width="142" height="36" viewBox="0 0 142 36" fill="none" xmlns="http://www.w3.org/2000/svg">
<path d="M36.8282 32.4773V13.4357C36.8282 12.4459 37.0517 11.7097 37.5037 11.2122C37.9557 10.7148 38.5369 10.4711 39.2522 10.4711C39.9824 10.4711 40.5784 10.7148 41.0354 11.2023C41.4924 11.6898 41.7209 12.4359 41.7209 13.4357V32.4773C41.7209 33.4771 41.4924 34.2233 41.0354 34.7157C40.5784 35.2132 39.9824 35.4569 39.2522 35.4569C38.5518 35.4569 37.9706 35.2082 37.5136 34.7107C37.0566 34.2133 36.8282 33.4721 36.8282 32.4773ZM47.0657 29.4131L59.474 14.5599H48.8142C48.0641 14.5599 47.5028 14.3958 47.1303 14.0625C46.7478 13.7292 46.564 13.2965 46.564 12.7543C46.564 12.1971 46.7478 11.7395 47.1303 11.3913C47.5078 11.0481 48.0691 10.874 48.8142 10.874H62.5537C64.332 10.874 65.2161 11.7047 65.2161 13.3661C65.2161 14.162 65.0721 14.7887 64.774 15.2613C64.476 15.7339 63.8799 16.4999 62.9809 17.5594L51.3823 31.373H64.1631C64.9181 31.373 65.4844 31.5322 65.8569 31.8456C66.2344 32.154 66.4182 32.5967 66.4182 33.1588C66.4182 33.7408 66.2344 34.1984 65.8569 34.5416C65.4844 34.8848 64.9181 35.054 64.1631 35.054H48.4814C47.4184 35.054 46.6137 34.8102 46.0822 34.3327C45.5408 33.8552 45.2725 33.2185 45.2725 32.4126C45.2725 32.139 45.3172 31.8854 45.4017 31.6516C45.4911 31.4227 45.6103 31.1989 45.7544 30.9999C45.9083 30.796 46.107 30.5373 46.3703 30.2289C46.6385 29.9205 46.867 29.642 47.0657 29.4131ZM80.6296 10.4711C83.1381 10.4711 85.2839 10.9784 87.0771 11.9982C88.8703 13.0129 90.2313 14.4604 91.1503 16.3308C92.0742 18.2061 92.5312 20.4047 92.5312 22.9316C92.5312 24.802 92.2779 26.4982 91.7712 28.0253C91.2645 29.5574 90.5145 30.8805 89.5012 31.9998C88.4878 33.119 87.251 33.9746 85.7807 34.5715C84.3103 35.1634 82.6264 35.4619 80.7289 35.4619C78.8414 35.4619 77.1475 35.1584 75.6574 34.5466C74.1622 33.9397 72.9204 33.0792 71.917 31.9699C70.9186 30.8607 70.1635 29.5275 69.6519 27.9606C69.1403 26.4037 68.887 24.7124 68.887 22.9018C68.887 21.0464 69.1502 19.3452 69.6867 17.7882C70.2182 16.2412 70.9931 14.9231 72.0014 13.8287C73.0098 12.7443 74.2367 11.9086 75.6872 11.3366C77.1426 10.7546 78.7867 10.4711 80.6296 10.4711ZM87.5788 22.8968C87.5788 21.131 87.2907 19.5939 86.7244 18.2906C86.1532 16.9973 85.3336 16.0174 84.2805 15.3459C83.2225 14.6793 82.0055 14.351 80.6346 14.351C79.661 14.351 78.7569 14.5351 77.9324 14.9032C77.1028 15.2762 76.3875 15.8085 75.7915 16.5148C75.1954 17.2162 74.7235 18.1215 74.3758 19.2109C74.0331 20.3102 73.8592 21.5339 73.8592 22.8968C73.8592 24.2747 74.0331 25.5133 74.3758 26.6275C74.7235 27.7368 75.2153 28.662 75.8411 29.3932C76.472 30.1245 77.1972 30.6716 78.0118 31.0298C78.8314 31.3979 79.7256 31.577 80.7041 31.577C81.9559 31.577 83.1033 31.2636 84.1564 30.6368C85.1995 30.01 86.034 29.045 86.6599 27.7318C87.2708 26.4286 87.5788 24.8119 87.5788 22.8968ZM103.623 13.4059L113.021 27.6572V13.2716C113.021 12.3364 113.225 11.64 113.622 11.1724C114.02 10.7049 114.561 10.4711 115.242 10.4711C115.937 10.4711 116.493 10.6999 116.901 11.1675C117.303 11.6351 117.507 12.3364 117.507 13.2716V32.2833C117.507 34.4073 116.627 35.4619 114.874 35.4619C114.437 35.4619 114.044 35.4022 113.687 35.2728C113.339 35.1485 113.006 34.9445 112.703 34.6759C112.395 34.4023 112.112 34.079 111.849 33.7059C111.586 33.3378 111.322 32.9648 111.054 32.5818L101.895 18.5095V32.6613C101.895 33.5866 101.681 34.283 101.254 34.7555C100.822 35.2281 100.27 35.4668 99.5996 35.4668C98.9092 35.4668 98.3528 35.2281 97.9356 34.7505C97.5134 34.273 97.3047 33.5716 97.3047 32.6613V14.0177C97.3047 13.2218 97.3942 12.605 97.568 12.1524C97.7766 11.655 98.1244 11.252 98.6062 10.9387C99.088 10.6302 99.6145 10.4711 100.171 10.4711C100.613 10.4711 100.99 10.5457 101.298 10.685C101.611 10.8292 101.89 11.0232 102.123 11.267C102.361 11.5107 102.6 11.8191 102.848 12.2071C103.102 12.5851 103.36 12.9881 103.623 13.4059ZM139.293 14.6594H128.276V20.6037H138.424C139.174 20.6037 139.73 20.7728 140.093 21.1061C140.465 21.4394 140.644 21.8821 140.644 22.4292C140.644 22.9764 140.465 23.4241 140.103 23.7673C139.735 24.1106 139.179 24.2847 138.424 24.2847H128.276V31.174H139.671C140.441 31.174 141.022 31.3531 141.409 31.7063C141.802 32.0595 142 32.537 142 33.1289C142 33.696 141.802 34.1636 141.409 34.5217C141.022 34.8749 140.441 35.0589 139.671 35.0589H126.383C125.32 35.0589 124.555 34.8202 124.088 34.3476C123.621 33.8751 123.388 33.109 123.388 32.0545V13.8735C123.388 13.1721 123.492 12.5951 123.701 12.1524C123.909 11.7097 124.237 11.3814 124.679 11.1774C125.121 10.9735 125.693 10.874 126.383 10.874H139.293C140.073 10.874 140.654 11.0481 141.032 11.3913C141.409 11.7395 141.598 12.1971 141.598 12.7543C141.598 13.3263 141.409 13.7889 141.032 14.1371C140.654 14.4853 140.073 14.6594 139.293 14.6594Z" fill="black"/>
<path d="M13.5458 10.7764C15.8605 10.7764 17.7332 12.6566 17.7332 14.9696C17.7332 17.2876 15.8555 19.1629 13.5458 19.1629C11.236 19.1629 9.35834 17.2876 9.35834 14.9696C9.35834 12.6566 11.231 10.7764 13.5458 10.7764Z" fill="black"/>
<path d="M4.18742 10.7761C6.50217 10.7761 8.37483 12.6564 8.37483 14.9695C8.37483 17.2876 6.4972 19.163 4.18742 19.163C1.87763 19.163 0 17.2876 0 14.9695C0 12.6515 1.87266 10.7761 4.18742 10.7761Z" fill="black"/>
<path d="M8.85178 18.8848C11.1665 18.8848 13.0392 20.765 13.0392 23.078C13.0392 25.396 11.1616 27.2713 8.85178 27.2713C6.542 27.2713 4.66437 25.3911 4.66437 23.078C4.66437 20.765 6.53703 18.8848 8.85178 18.8848Z" fill="black"/>
<path d="M18.3386 18.8848C20.6534 18.8848 22.526 20.765 22.526 23.078C22.526 25.396 20.6484 27.2713 18.3386 27.2713C16.0238 27.2713 14.1512 25.3911 14.1512 23.078C14.1512 20.765 16.0238 18.8848 18.3386 18.8848Z" fill="black"/>
<path d="M13.5458 27.1973C15.8605 27.1973 17.7332 29.0775 17.7332 31.3905C17.7332 33.7085 15.8555 35.5838 13.5458 35.5838C11.236 35.5838 9.35834 33.7036 9.35834 31.3905C9.35834 29.0775 11.231 27.1973 13.5458 27.1973Z" fill="black"/>
<path d="M23.0599 10.7764C25.3746 10.7764 27.2473 12.6566 27.2473 14.9696C27.2473 17.2876 25.3696 19.1629 23.0599 19.1629C20.7501 19.1629 18.8724 17.2876 18.8724 14.9696C18.8724 12.6566 20.7501 10.7764 23.0599 10.7764Z" fill="black"/>
<path d="M13.8935 9.58264C12.9894 8.81658 13.8984 6.24482 15.93 3.83722C17.9567 1.42962 20.336 0.0964823 21.245 0.857563C22.1491 1.62362 21.2401 4.19538 19.2084 6.60298C17.1818 9.01058 14.8025 10.3437 13.8935 9.58264Z" fill="black"/>
</svg>
