<svg width="98" height="25" viewBox="0 0 98 25" fill="none" xmlns="http://www.w3.org/2000/svg">
<path d="M25.3262 21.9249V8.82996C25.3262 8.14921 25.4799 7.64293 25.7907 7.30084C26.1016 6.95876 26.5013 6.79114 26.9932 6.79114C27.4953 6.79114 27.9052 6.95876 28.2195 7.294C28.5338 7.62925 28.6909 8.14237 28.6909 8.82996V21.9249C28.6909 22.6125 28.5338 23.1257 28.2195 23.4643C27.9052 23.8064 27.4953 23.974 26.9932 23.974C26.5115 23.974 26.1118 23.803 25.7976 23.4609C25.4833 23.1188 25.3262 22.6091 25.3262 21.9249ZM32.3665 19.8177L40.8996 9.60307H33.5689C33.0531 9.60307 32.6671 9.49018 32.4109 9.26099C32.1479 9.03179 32.0215 8.73418 32.0215 8.3613C32.0215 7.97817 32.1479 7.66345 32.4109 7.42399C32.6705 7.18796 33.0565 7.06823 33.5689 7.06823H43.0175C44.2404 7.06823 44.8484 7.63951 44.8484 8.78207C44.8484 9.3294 44.7494 9.76043 44.5444 10.0854C44.3395 10.4104 43.9295 10.9372 43.3112 11.6658L35.335 21.1655H44.1243C44.6435 21.1655 45.0329 21.275 45.2891 21.4905C45.5487 21.7026 45.6751 22.007 45.6751 22.3936C45.6751 22.7938 45.5487 23.1086 45.2891 23.3446C45.0329 23.5806 44.6435 23.6969 44.1243 23.6969H33.34C32.609 23.6969 32.0556 23.5293 31.6901 23.2009C31.3178 22.8725 31.1333 22.4347 31.1333 21.8805C31.1333 21.6923 31.1641 21.5179 31.2221 21.3571C31.2836 21.1997 31.3656 21.0458 31.4647 20.909C31.5706 20.7687 31.7072 20.5908 31.8882 20.3787C32.0727 20.1666 32.2298 19.9751 32.3665 19.8177ZM55.4482 6.79114C57.1733 6.79114 58.649 7.14006 59.8821 7.84134C61.1153 8.53919 62.0513 9.53466 62.6832 10.8209C63.3186 12.1105 63.6329 13.6226 63.6329 15.3603C63.6329 16.6466 63.4586 17.8131 63.1102 18.8633C62.7618 19.9169 62.246 20.8269 61.5491 21.5965C60.8523 22.3662 60.0017 22.9546 58.9905 23.3651C57.9794 23.7722 56.8214 23.9774 55.5165 23.9774C54.2184 23.9774 53.0536 23.7688 52.0288 23.348C51.0006 22.9307 50.1466 22.3389 49.4566 21.576C48.77 20.8132 48.2507 19.8964 47.8989 18.8188C47.5471 17.7481 47.3728 16.585 47.3728 15.3398C47.3728 14.0639 47.5539 12.8939 47.9228 11.8232C48.2883 10.7593 48.8212 9.85279 49.5147 9.10021C50.2081 8.35446 51.0518 7.77976 52.0493 7.38637C53.0502 6.98613 54.1809 6.79114 55.4482 6.79114ZM60.2271 15.3364C60.2271 14.122 60.029 13.065 59.6396 12.1687C59.2467 11.2793 58.6831 10.6054 57.9589 10.1436C57.2313 9.68517 56.3944 9.45939 55.4516 9.45939C54.7821 9.45939 54.1604 9.58597 53.5933 9.83911C53.0229 10.0957 52.531 10.4617 52.121 10.9475C51.7111 11.4298 51.3866 12.0524 51.1475 12.8016C50.9118 13.5576 50.7922 14.3991 50.7922 15.3364C50.7922 16.284 50.9118 17.1358 51.1475 17.902C51.3866 18.6649 51.7248 19.3012 52.1552 19.804C52.589 20.3069 53.0878 20.6832 53.648 20.9295C54.2116 21.1826 54.8265 21.3058 55.4994 21.3058C56.3603 21.3058 57.1493 21.0903 57.8735 20.6592C58.5909 20.2282 59.1648 19.5646 59.5952 18.6615C60.0153 17.7652 60.2271 16.6534 60.2271 15.3364ZM71.2607 8.80944L77.7237 18.6101V8.71707C77.7237 8.07395 77.8638 7.59504 78.1371 7.27348C78.4103 6.95192 78.7827 6.79114 79.2507 6.79114C79.7289 6.79114 80.1115 6.9485 80.3916 7.27006C80.6683 7.59161 80.8083 8.07395 80.8083 8.71707V21.7915C80.8083 23.2522 80.2037 23.9774 78.9979 23.9774C78.6973 23.9774 78.4274 23.9364 78.1815 23.8475C77.9423 23.7619 77.7135 23.6217 77.5051 23.437C77.2933 23.2488 77.0986 23.0265 76.9176 22.7699C76.7365 22.5168 76.5555 22.2602 76.371 21.9968L70.072 12.3192V22.0515C70.072 22.6878 69.9251 23.1667 69.6313 23.4917C69.3341 23.8167 68.9549 23.9809 68.4938 23.9809C68.019 23.9809 67.6364 23.8167 67.3494 23.4883C67.0591 23.1599 66.9156 22.6775 66.9156 22.0515V9.2302C66.9156 8.68286 66.9771 8.25868 67.0966 7.94738C67.2401 7.6053 67.4792 7.32821 67.8106 7.1127C68.1419 6.9006 68.504 6.79114 68.8866 6.79114C69.1906 6.79114 69.4502 6.84245 69.662 6.93823C69.8772 7.03744 70.0685 7.17085 70.2291 7.33847C70.3931 7.50609 70.557 7.71819 70.7278 7.98501C70.902 8.245 71.0797 8.52208 71.2607 8.80944ZM95.7908 9.67149H88.2142V13.7594H95.193C95.7088 13.7594 96.0914 13.8757 96.3408 14.1049C96.597 14.3341 96.7199 14.6386 96.7199 15.0148C96.7199 15.3911 96.597 15.699 96.3476 15.9351C96.0948 16.1711 95.7122 16.2908 95.193 16.2908H88.2142V21.0287H96.0504C96.5799 21.0287 96.9795 21.1518 97.246 21.3947C97.5159 21.6376 97.6525 21.966 97.6525 22.3731C97.6525 22.7631 97.5159 23.0846 97.246 23.3309C96.9795 23.5738 96.5799 23.7004 96.0504 23.7004H86.9127C86.1817 23.7004 85.6556 23.5362 85.3345 23.2112C85.0134 22.8862 84.8529 22.3594 84.8529 21.6342V9.13099C84.8529 8.64866 84.9246 8.25184 85.0681 7.94738C85.2115 7.64293 85.437 7.41715 85.741 7.2769C86.045 7.13664 86.4379 7.06823 86.9127 7.06823H95.7908C96.3271 7.06823 96.7268 7.18796 96.9864 7.42399C97.246 7.66345 97.3758 7.97817 97.3758 8.3613C97.3758 8.7547 97.246 9.07284 96.9864 9.3123C96.7268 9.55176 96.3271 9.67149 95.7908 9.67149Z" fill="#F5C74D"/>
<path d="M9.31521 7.00122C10.9071 7.00122 12.1949 8.2943 12.1949 9.88499C12.1949 11.4791 10.9036 12.7688 9.31521 12.7688C7.72678 12.7688 6.43555 11.4791 6.43555 9.88499C6.43555 8.2943 7.72337 7.00122 9.31521 7.00122Z" fill="#F5C74D"/>
<path d="M2.87966 7.00122C4.4715 7.00122 5.75932 8.2943 5.75932 9.88499C5.75932 11.4791 4.46809 12.7688 2.87966 12.7688C1.29124 12.7688 0 11.4791 0 9.88499C0 8.29088 1.28782 7.00122 2.87966 7.00122Z" fill="#F5C74D"/>
<path d="M6.08669 12.577C7.67853 12.577 8.96635 13.8701 8.96635 15.4608C8.96635 17.0549 7.67512 18.3446 6.08669 18.3446C4.49827 18.3446 3.20703 17.0515 3.20703 15.4608C3.20703 13.8701 4.49485 12.577 6.08669 12.577Z" fill="#F5C74D"/>
<path d="M12.6121 12.577C14.2039 12.577 15.4917 13.8701 15.4917 15.4608C15.4917 17.0549 14.2005 18.3446 12.6121 18.3446C11.0202 18.3446 9.73242 17.0515 9.73242 15.4608C9.73242 13.8701 11.0202 12.577 12.6121 12.577Z" fill="#F5C74D"/>
<path d="M9.31521 18.2935C10.9071 18.2935 12.1949 19.5865 12.1949 21.1772C12.1949 22.7713 10.9036 24.061 9.31521 24.061C7.72678 24.061 6.43555 22.7679 6.43555 21.1772C6.43555 19.5865 7.72337 18.2935 9.31521 18.2935Z" fill="#F5C74D"/>
<path d="M15.8582 7.00122C17.45 7.00122 18.7378 8.2943 18.7378 9.88499C18.7378 11.4791 17.4466 12.7688 15.8582 12.7688C14.2698 12.7688 12.9785 11.4791 12.9785 9.88499C12.9785 8.2943 14.2698 7.00122 15.8582 7.00122Z" fill="#F5C74D"/>
<path d="M9.55392 6.18016C8.93221 5.65335 9.55733 3.88478 10.9545 2.22909C12.3482 0.573405 13.9844 -0.34338 14.6096 0.180009C15.2313 0.706818 14.6061 2.47539 13.209 4.13108C11.8153 5.78677 10.179 6.70355 9.55392 6.18016Z" fill="#F5C74D"/>
</svg>
