<svg width="28" height="28" viewBox="0 0 28 28" fill="none" xmlns="http://www.w3.org/2000/svg">
<circle cx="14" cy="14" r="14" fill="#F5F5F5"/>
<path d="M20.666 20.3999C20.8869 20.3999 21.066 20.2208 21.066 19.9999V15.3333C21.066 14.1663 20.6024 13.0471 19.7773 12.222C18.9521 11.3968 17.833 10.9333 16.666 10.9333C15.4991 10.9333 14.3799 11.3968 13.5547 12.222C12.7296 13.0471 12.266 14.1663 12.266 15.3333V19.9999C12.266 20.2208 12.4451 20.3999 12.666 20.3999H15.3327C15.5536 20.3999 15.7327 20.2208 15.7327 19.9999V15.3333C15.7327 15.0857 15.831 14.8483 16.006 14.6733C16.1811 14.4983 16.4185 14.3999 16.666 14.3999C16.9136 14.3999 17.1509 14.4983 17.326 14.6733C17.501 14.8483 17.5993 15.0857 17.5993 15.3333V19.9999C17.5993 20.2208 17.7784 20.3999 17.9993 20.3999H20.666Z" stroke="black" stroke-opacity="0.8" stroke-width="0.8" stroke-linecap="round" stroke-linejoin="round"/>
<path d="M10.3997 11.9999C10.3997 11.779 10.2206 11.5999 9.99967 11.5999H7.33301C7.11209 11.5999 6.93301 11.779 6.93301 11.9999V19.9999C6.93301 20.2208 7.11209 20.3999 7.33301 20.3999H9.99967C10.2206 20.3999 10.3997 20.2208 10.3997 19.9999V11.9999Z" stroke="black" stroke-opacity="0.8" stroke-width="0.8" stroke-linecap="round" stroke-linejoin="round"/>
<path d="M8.66634 10.3999C9.62363 10.3999 10.3997 9.62388 10.3997 8.66659C10.3997 7.70929 9.62363 6.93325 8.66634 6.93325C7.70905 6.93325 6.93301 7.70929 6.93301 8.66659C6.93301 9.62388 7.70905 10.3999 8.66634 10.3999Z" stroke="black" stroke-opacity="0.8" stroke-width="0.8" stroke-linecap="round" stroke-linejoin="round"/>
</svg>
