<svg width="28" height="28" viewBox="0 0 28 28" fill="none" xmlns="http://www.w3.org/2000/svg">
<circle cx="14" cy="14" r="14" fill="#F5F5F5"/>
<path d="M17.333 7.0946H10.6663C8.82539 7.0946 7.33301 8.58872 7.33301 10.4318V17.1062C7.33301 18.9493 8.82539 20.4434 10.6663 20.4434H17.333C19.174 20.4434 20.6663 18.9493 20.6663 17.1062V10.4318C20.6663 8.58872 19.174 7.0946 17.333 7.0946Z" stroke="black" stroke-opacity="0.8" stroke-linecap="round" stroke-linejoin="round"/>
<path d="M16.6658 13.3486C16.7481 13.9041 16.6533 14.4714 16.395 14.9698C16.1367 15.4683 15.7279 15.8725 15.2269 16.1249C14.7259 16.3774 14.1581 16.4653 13.6043 16.376C13.0506 16.2868 12.539 16.0251 12.1424 15.628C11.7458 15.2309 11.4843 14.7188 11.3952 14.1643C11.3061 13.6099 11.3939 13.0415 11.646 12.5399C11.8982 12.0383 12.3019 11.6291 12.7998 11.3705C13.2977 11.1118 13.8643 11.0169 14.4192 11.0993C14.9851 11.1833 15.5091 11.4474 15.9136 11.8524C16.3182 12.2574 16.5819 12.782 16.6658 13.3486Z" stroke="black" stroke-opacity="0.8" stroke-linecap="round" stroke-linejoin="round"/>
<path d="M17.666 10.098H17.676" stroke="black" stroke-opacity="0.8" stroke-linecap="round" stroke-linejoin="round"/>
</svg>
