<svg width="36" height="36" viewBox="0 0 36 36" fill="none" xmlns="http://www.w3.org/2000/svg">
<path d="M16.293 17.3831L17.6589 16.0175C18.178 16.2963 18.771 16.4548 19.4002 16.4548C21.4376 16.4548 23.0952 14.7975 23.0952 12.7601C23.0952 10.723 21.4376 9.0654 19.4002 9.0654C17.3631 9.0654 15.7055 10.723 15.7055 12.7601C15.7055 13.3893 15.8643 13.9823 16.1428 14.5014L14.7769 15.8673L4.99713 6.08728C4.79608 5.88623 4.52335 5.77307 4.23908 5.77307C3.95481 5.77307 3.68207 5.88623 3.48102 6.08728C1.21894 8.34937 0.318332 11.6675 0.945376 15.4306C1.39032 18.1003 2.5741 20.7724 4.35031 23.1815L0.0689424 34.5501C-0.0552031 34.8794 -0.00988449 35.2486 0.190341 35.5381C0.390842 35.8273 0.720157 36 1.07199 36H16.0799C16.4372 36 16.7706 35.8223 16.9698 35.5257C17.1689 35.2296 17.2073 34.8533 17.0725 34.5226L15.6302 30.9892C15.9961 31.0779 16.363 31.1537 16.7297 31.2147C17.5108 31.3448 18.2727 31.4091 19.0102 31.4091C21.8246 31.4091 24.2803 30.4717 26.0727 28.6793C26.2738 28.4782 26.387 28.2055 26.387 27.9212C26.387 27.637 26.2741 27.3642 26.0727 27.1632L16.293 17.3831ZM19.4005 11.2097C20.2555 11.2097 20.9509 11.9051 20.9509 12.7601C20.9509 13.6151 20.2555 14.3105 19.4005 14.3105C18.5455 14.3105 17.8498 13.6151 17.8498 12.7601C17.8498 11.9051 18.5455 11.2097 19.4005 11.2097ZM17.0821 29.0995C13.8886 28.5675 10.6661 26.8105 8.00766 24.1524C5.34979 21.4942 3.59281 18.2717 3.06052 15.0779C2.62409 12.4604 3.06381 10.1401 4.30032 8.4227L23.7373 27.8597C22.0199 29.0962 19.6996 29.5359 17.0821 29.0995ZM14.4844 33.8558H2.62134L5.92603 25.0815C6.11032 25.2798 6.29874 25.4757 6.49155 25.6685C8.42432 27.6013 10.6383 29.1097 12.949 30.0949L14.4844 33.8558Z" fill="#F5C74D"/>
<path d="M19.4004 4.56592C18.8082 4.56592 18.3281 5.04575 18.3281 5.63791C18.3281 6.23007 18.8082 6.7099 19.4004 6.7099C22.7364 6.7099 25.4506 9.42407 25.4506 12.7601C25.4506 13.3522 25.9304 13.8323 26.5226 13.8323C27.1147 13.8323 27.5945 13.3522 27.5945 12.7601C27.5945 8.24167 23.9188 4.56592 19.4004 4.56592Z" fill="#F5C74D"/>
<path d="M19.4004 0C18.8082 0 18.3281 0.480103 18.3281 1.07199C18.3281 1.66415 18.8082 2.14426 19.4004 2.14426C25.2539 2.14426 30.0162 6.90656 30.0162 12.7601C30.0162 13.3522 30.4963 13.8323 31.0882 13.8323C31.6804 13.8323 32.1605 13.3522 32.1605 12.7601C32.1605 5.72415 26.4363 0 19.4004 0Z" fill="#F5C74D"/>
</svg>
