<svg width="36" height="36" viewBox="0 0 36 36" fill="none" xmlns="http://www.w3.org/2000/svg">
<path d="M28.5683 13.8217H22.5237L23.8894 7.67024C24.0574 6.9109 24.0032 6.11925 23.7332 5.38989C23.4633 4.66053 22.9891 4.0243 22.3673 3.55724L21.4268 2.85187C21.0875 2.59634 20.6977 2.41585 20.2834 2.32237C19.869 2.2289 19.4395 2.22457 19.0234 2.30967C18.6072 2.39477 18.2139 2.56736 17.8695 2.816C17.5251 3.06464 17.2375 3.38365 17.0258 3.75187C15.1667 7.13557 13.0483 10.3702 10.6898 13.4269C10.5991 13.2348 10.4559 13.0723 10.2767 12.9582C10.0975 12.8442 9.88969 12.7831 9.67728 12.7822H3.44141C3.14304 12.7822 2.85689 12.9008 2.64591 13.1117C2.43493 13.3227 2.31641 13.6089 2.31641 13.9072V31.5855C2.31641 31.8839 2.43493 32.17 2.64591 32.381C2.85689 32.592 3.14304 32.7105 3.44141 32.7105H9.68066C9.94989 32.7085 10.2093 32.6089 10.4106 32.4301C10.6119 32.2514 10.7415 32.0056 10.7753 31.7385C11.3571 32.3702 12.0631 32.8749 12.8491 33.221C13.635 33.5671 14.484 33.7472 15.3428 33.75H21.519C22.5414 33.7511 23.5482 33.4992 24.4496 33.0167C25.351 32.5342 26.119 31.8361 26.685 30.9847L32.8253 21.7744C33.3384 21.0039 33.6329 20.1086 33.6774 19.1839C33.7218 18.2592 33.5145 17.3398 33.0776 16.5236C32.6408 15.7074 31.9906 15.0251 31.1965 14.5493C30.4024 14.0735 29.494 13.822 28.5683 13.8217ZM8.55566 30.4605H4.56641V15.0311H8.55566V30.4605ZM30.9533 20.5279L24.813 29.7371C24.4519 30.2798 23.9622 30.7248 23.3875 31.0324C22.8128 31.3399 22.1709 31.5006 21.519 31.5H15.3428C14.7283 31.4986 14.1224 31.3549 13.5728 31.08C13.0231 30.8052 12.5446 30.4068 12.1748 29.916L10.8057 28.0912V16.5375C13.1558 14.5541 16.5015 9.18674 18.9765 4.87237C19.0286 4.7805 19.0998 4.70097 19.1855 4.63922C19.2711 4.57747 19.3691 4.53497 19.4727 4.51462C19.5773 4.49269 19.6855 4.49339 19.7899 4.51667C19.8943 4.53995 19.9925 4.58528 20.0779 4.64962L21.0173 5.35499C21.2932 5.56268 21.5036 5.84536 21.6232 6.16931C21.7429 6.49326 21.7669 6.8448 21.6923 7.18199L20.025 14.7026C19.9885 14.8671 19.9893 15.0376 20.0275 15.2017C20.0657 15.3658 20.1402 15.5192 20.2456 15.6506C20.351 15.782 20.4845 15.8881 20.6364 15.961C20.7883 16.0339 20.9546 16.0717 21.123 16.0717H28.5717C29.0903 16.0722 29.5991 16.2133 30.0438 16.4799C30.4886 16.7466 30.8528 17.129 31.0975 17.5862C31.3422 18.0434 31.4583 18.5585 31.4335 19.0765C31.4088 19.5945 31.2439 20.0961 30.9567 20.5279H30.9533Z" fill="#F5C74D"/>
</svg>
