<svg width="106" height="26" viewBox="0 0 106 26" fill="none" xmlns="http://www.w3.org/2000/svg">
<path d="M0.828156 22.4773V3.43574C0.828156 2.44586 1.05168 1.70967 1.5037 1.21224C1.95573 0.71481 2.5369 0.471069 3.25219 0.471069C3.98238 0.471069 4.57845 0.714811 5.03544 1.20229C5.49243 1.68977 5.72092 2.43591 5.72092 3.43574V22.4773C5.72092 23.4771 5.49243 24.2233 5.03544 24.7157C4.57845 25.2132 3.98238 25.4569 3.25219 25.4569C2.5518 25.4569 1.97063 25.2082 1.51364 24.7107C1.05665 24.2133 0.828156 23.4721 0.828156 22.4773ZM11.0657 19.4131L23.474 4.55993H12.8142C12.0641 4.55993 11.5028 4.39578 11.1303 4.0625C10.7478 3.72922 10.564 3.29646 10.564 2.75427C10.564 2.19715 10.7478 1.73951 11.1303 1.39131C11.5078 1.04809 12.0691 0.873985 12.8142 0.873985H26.5537C28.332 0.873985 29.2161 1.70469 29.2161 3.3661C29.2161 4.16199 29.0721 4.78875 28.774 5.2613C28.476 5.73386 27.8799 6.4999 26.9809 7.55942L15.3823 21.373H28.1631C28.9181 21.373 29.4844 21.5322 29.8569 21.8456C30.2344 22.154 30.4182 22.5967 30.4182 23.1588C30.4182 23.7408 30.2344 24.1984 29.8569 24.5416C29.4844 24.8848 28.9181 25.054 28.1631 25.054H12.4814C11.4184 25.054 10.6137 24.8102 10.0822 24.3327C9.54076 23.8552 9.27252 23.2185 9.27252 22.4126C9.27252 22.139 9.31723 21.8854 9.40167 21.6516C9.49109 21.4227 9.6103 21.1989 9.75435 20.9999C9.90834 20.796 10.107 20.5373 10.3703 20.2289C10.6385 19.9205 10.867 19.642 11.0657 19.4131ZM44.6296 0.471069C47.1381 0.471069 49.2839 0.978447 51.0771 1.99817C52.8703 3.01293 54.2313 4.46045 55.1503 6.33078C56.0742 8.20608 56.5312 10.4047 56.5312 12.9316C56.5312 14.802 56.2779 16.4982 55.7712 18.0253C55.2645 19.5574 54.5145 20.8805 53.5012 21.9998C52.4878 23.119 51.251 23.9746 49.7807 24.5715C48.3103 25.1634 46.6264 25.4619 44.7289 25.4619C42.8414 25.4619 41.1475 25.1584 39.6574 24.5466C38.1622 23.9397 36.9204 23.0792 35.917 21.9699C34.9186 20.8607 34.1635 19.5275 33.6519 17.9606C33.1403 16.4037 32.887 14.7124 32.887 12.9018C32.887 11.0464 33.1502 9.34519 33.6867 7.78824C34.2182 6.24124 34.9931 4.92305 36.0014 3.82871C37.0098 2.74432 38.2367 1.90864 39.6872 1.3366C41.1426 0.754605 42.7867 0.471069 44.6296 0.471069ZM51.5788 12.8968C51.5788 11.131 51.2907 9.59391 50.7244 8.29064C50.1532 6.99733 49.3336 6.0174 48.2805 5.34587C47.2225 4.67931 46.0055 4.35101 44.6346 4.35101C43.661 4.35101 42.7569 4.53506 41.9324 4.90315C41.1028 5.27623 40.3875 5.80848 39.7915 6.51482C39.1954 7.2162 38.7235 8.12152 38.3758 9.21088C38.0331 10.3102 37.8592 11.5339 37.8592 12.8968C37.8592 14.2747 38.0331 15.5133 38.3758 16.6275C38.7235 17.7368 39.2153 18.662 39.8411 19.3932C40.472 20.1245 41.1972 20.6716 42.0118 21.0298C42.8314 21.3979 43.7256 21.577 44.7041 21.577C45.9559 21.577 47.1033 21.2636 48.1564 20.6368C49.1995 20.01 50.034 19.045 50.6599 17.7318C51.2708 16.4286 51.5788 14.8119 51.5788 12.8968ZM67.6231 3.4059L77.0212 17.6572V3.27159C77.0212 2.33642 77.2249 1.64003 77.6222 1.17244C78.0196 0.704862 78.5611 0.471069 79.2416 0.471069C79.937 0.471069 80.4933 0.699886 80.9007 1.16747C81.303 1.63505 81.5067 2.33642 81.5067 3.27159V22.2833C81.5067 24.4073 80.6275 25.4619 78.874 25.4619C78.4369 25.4619 78.0445 25.4022 77.6868 25.2728C77.3391 25.1485 77.0063 24.9445 76.7033 24.6759C76.3953 24.4023 76.1122 24.079 75.8489 23.7059C75.5857 23.3378 75.3224 22.9648 75.0542 22.5818L65.8945 8.50951V22.6613C65.8945 23.5866 65.6809 24.283 65.2537 24.7555C64.8216 25.2281 64.2702 25.4668 63.5996 25.4668C62.9092 25.4668 62.3528 25.2281 61.9356 24.7505C61.5134 24.273 61.3047 23.5716 61.3047 22.6613V4.01773C61.3047 3.22185 61.3942 2.60504 61.568 2.15238C61.7766 1.65495 62.1244 1.25203 62.6062 0.938651C63.088 0.630246 63.6145 0.471069 64.1709 0.471069C64.6129 0.471069 64.9905 0.545685 65.2984 0.684965C65.6114 0.829219 65.8895 1.02321 66.123 1.26695C66.3614 1.51069 66.5999 1.8191 66.8482 2.20709C67.1016 2.58514 67.3599 2.98806 67.6231 3.4059ZM103.293 4.65941H92.2757V10.6037H102.424C103.174 10.6037 103.73 10.7728 104.093 11.1061C104.465 11.4394 104.644 11.8821 104.644 12.4292C104.644 12.9764 104.465 13.4241 104.103 13.7673C103.735 14.1106 103.179 14.2847 102.424 14.2847H92.2757V21.174H103.671C104.441 21.174 105.022 21.3531 105.409 21.7063C105.802 22.0595 106 22.537 106 23.1289C106 23.696 105.802 24.1636 105.409 24.5217C105.022 24.8749 104.441 25.0589 103.671 25.0589H90.3832C89.3202 25.0589 88.5552 24.8202 88.0883 24.3476C87.6214 23.8751 87.3879 23.109 87.3879 22.0545V3.87348C87.3879 3.1721 87.4922 2.59509 87.7009 2.15238C87.9095 1.70967 88.2373 1.38136 88.6794 1.17742C89.1215 0.973473 89.6927 0.873985 90.3832 0.873985H103.293C104.073 0.873985 104.654 1.04809 105.032 1.39131C105.409 1.73951 105.598 2.19715 105.598 2.75427C105.598 3.32631 105.409 3.78892 105.032 4.13712C104.654 4.48532 104.073 4.65941 103.293 4.65941Z" fill="black"/>
</svg>
