<svg width="36" height="36" viewBox="0 0 36 36" fill="none" xmlns="http://www.w3.org/2000/svg">
<g clip-path="url(#clip0_0_151)">
<path d="M29.1857 17.5903C32.8753 14.2734 33.1775 8.59354 29.8606 4.90396C26.8184 1.52001 21.7265 0.945133 18.0065 3.56572C13.9512 0.703761 8.34376 1.67113 5.4818 5.72631C2.85572 9.4473 3.42826 14.5445 6.81439 17.5902C2.60704 19.808 -0.0188955 24.1805 0.000164092 28.9365V32.7937C0.000164092 33.5038 0.575795 34.0794 1.2859 34.0794H34.7143C35.4244 34.0794 36 33.5038 36 32.7937V28.9365C36.019 24.1805 33.3931 19.808 29.1857 17.5903ZM23.1428 4.50815C26.6882 4.50423 29.5655 7.37515 29.5695 10.9205C29.5723 13.4491 28.0907 15.7437 25.785 16.7815C25.686 16.8265 25.587 16.8676 25.4867 16.9101C25.1694 17.0381 24.8422 17.1399 24.5083 17.2148C24.444 17.229 24.3797 17.2367 24.3141 17.2495C23.9411 17.321 23.5625 17.3593 23.1827 17.364C23.0117 17.364 22.8394 17.3511 22.6684 17.3357C22.6041 17.3357 22.5398 17.3357 22.4755 17.3228C21.7448 17.2368 21.0339 17.0273 20.3734 16.7031C20.349 16.6915 20.3207 16.6928 20.2962 16.6826C20.1677 16.6209 20.0391 16.5669 19.9247 16.4974C19.935 16.4845 19.9414 16.4704 19.9517 16.4575C20.5412 15.7 21.006 14.8532 21.3286 13.9491L21.3685 13.8411C21.5152 13.4093 21.6291 12.9671 21.7092 12.5181C21.7208 12.4525 21.7298 12.3895 21.7401 12.3188C21.8145 11.8618 21.8536 11.3997 21.8571 10.9367C21.8534 10.4745 21.8143 10.0133 21.7401 9.55706C21.7298 9.49024 21.7208 9.42847 21.7092 9.3578C21.6291 8.90889 21.5152 8.4666 21.3685 8.03478L21.3286 7.92675C21.006 7.02266 20.5412 6.1759 19.9517 5.41834C19.9413 5.40546 19.9349 5.39137 19.9247 5.37849C20.9015 4.80866 22.012 4.50822 23.1428 4.50815ZM6.42868 10.9367C6.41956 7.39557 9.2828 4.51749 12.824 4.50838C14.4839 4.50408 16.0808 5.14375 17.2788 6.29275C17.3534 6.36477 17.4267 6.43671 17.4986 6.51129C17.7194 6.74264 17.9231 6.98974 18.1081 7.25055C18.1647 7.33025 18.2161 7.41515 18.2688 7.49742C18.4484 7.77397 18.6062 8.06416 18.7406 8.36527C18.7728 8.43857 18.7972 8.51315 18.8254 8.58638C18.9609 8.91943 19.0676 9.26356 19.1443 9.61492C19.1533 9.65349 19.1559 9.69206 19.1636 9.73191C19.3265 10.5302 19.3265 11.3533 19.1636 12.1516C19.1559 12.1914 19.1533 12.23 19.1443 12.2686C19.0677 12.6199 18.961 12.9641 18.8254 13.2971C18.7972 13.3704 18.7727 13.445 18.7406 13.5182C18.606 13.8189 18.4483 14.1086 18.2688 14.3848C18.216 14.4671 18.1647 14.552 18.1081 14.6317C17.9231 14.8925 17.7194 15.1396 17.4986 15.3709C17.4266 15.4455 17.3533 15.5175 17.2788 15.5895C16.7582 16.0855 16.1581 16.4906 15.5032 16.7877C15.3991 16.8353 15.2937 16.879 15.187 16.9163C14.8771 17.0394 14.5582 17.1382 14.233 17.212C14.152 17.23 14.0684 17.2403 13.9862 17.2544C13.6371 17.3194 13.2831 17.3551 12.928 17.3612H12.7866C12.4316 17.3552 12.0776 17.3194 11.7285 17.2544C11.6462 17.2403 11.5626 17.23 11.4816 17.212C11.1564 17.1382 10.8375 17.0394 10.5276 16.9163C10.4209 16.8739 10.3155 16.8302 10.2114 16.7877C7.91111 15.7492 6.43162 13.4605 6.42868 10.9367ZM23.1428 31.508H2.57155V28.9366C2.55272 24.5798 5.29776 20.6899 9.40891 19.2476C11.6159 20.1664 14.0984 20.1664 16.3055 19.2476C16.7347 19.4044 17.1531 19.5895 17.5578 19.8017C17.8252 19.9393 18.0721 20.0961 18.3292 20.2542C18.4964 20.3584 18.666 20.46 18.8268 20.5744C19.0749 20.7506 19.3089 20.9421 19.5391 21.1388C19.6869 21.2674 19.8335 21.3959 19.9723 21.5245C20.1844 21.7251 20.3837 21.9372 20.5753 22.1546C20.7128 22.3114 20.8466 22.4708 20.9739 22.6354C21.1423 22.8514 21.303 23.0726 21.4522 23.3001C21.5808 23.493 21.6952 23.6935 21.8083 23.8941C21.9369 24.1152 22.0552 24.3364 22.1631 24.5665C22.2711 24.7967 22.3663 25.0487 22.4588 25.2943C22.5398 25.5077 22.626 25.7198 22.6928 25.9371C22.7828 26.2353 22.8458 26.5439 22.9088 26.8525C22.9473 27.035 22.9975 27.2138 23.0258 27.3989C23.1019 27.9079 23.141 28.4219 23.1428 28.9366V31.508H23.1428ZM33.4285 31.508H25.7143V28.9366C25.7143 28.5342 25.6912 28.1356 25.6552 27.7409C25.6448 27.6252 25.6269 27.5108 25.614 27.395C25.5793 27.1109 25.5394 26.8294 25.4854 26.5503C25.4623 26.4312 25.4379 26.3116 25.4121 26.1916C25.3504 25.9053 25.2789 25.6216 25.1974 25.3405C25.1705 25.2479 25.146 25.154 25.1177 25.0628C24.7577 23.9119 24.236 22.818 23.5685 21.8138L23.5183 21.7405C23.2972 21.4122 23.061 21.0947 22.8099 20.7878L22.8009 20.7762C22.5438 20.4574 22.2647 20.1475 21.9716 19.8544C21.9883 19.8544 22.0063 19.8544 22.0243 19.8544C22.3872 19.9021 22.7525 19.9278 23.1185 19.9315H23.1892C23.5279 19.9286 23.8661 19.9067 24.2024 19.866C24.3078 19.8531 24.412 19.8338 24.5174 19.8171C24.7908 19.7751 25.0609 19.7207 25.3274 19.6538C25.4032 19.6345 25.4804 19.6165 25.5575 19.5947C25.9073 19.4995 26.2508 19.3827 26.5861 19.245C30.7002 20.6859 33.4478 24.5775 33.4286 28.9367V31.508H33.4285Z" fill="#F5C74D"/>
</g>
<defs>
<clipPath id="clip0_0_151">
<rect width="36" height="36" fill="white"/>
</clipPath>
</defs>
</svg>
