<svg width="18" height="18" viewBox="0 0 18 18" fill="none" xmlns="http://www.w3.org/2000/svg">
<path d="M17.3332 13.2208V15.7208C17.3341 15.9529 17.2866 16.1826 17.1936 16.3952C17.1006 16.6079 16.9643 16.7988 16.7933 16.9557C16.6222 17.1126 16.4203 17.232 16.2005 17.3064C15.9806 17.3807 15.7477 17.4083 15.5165 17.3874C12.9522 17.1088 10.489 16.2326 8.32486 14.8291C6.31139 13.5497 4.60431 11.8426 3.32486 9.8291C1.91651 7.6551 1.04007 5.17993 0.76653 2.6041C0.745705 2.37366 0.773092 2.1414 0.846947 1.92212C0.920801 1.70284 1.03951 1.50134 1.1955 1.33045C1.3515 1.15956 1.54137 1.02303 1.75302 0.929536C1.96468 0.836046 2.19348 0.787652 2.42486 0.787434H4.92486C5.32928 0.783454 5.72136 0.926666 6.028 1.19038C6.33464 1.45409 6.53493 1.82031 6.59153 2.22077C6.69705 3.02082 6.89274 3.80637 7.17486 4.56243C7.28698 4.8607 7.31125 5.18486 7.24478 5.4965C7.17832 5.80814 7.02391 6.09419 6.79986 6.32077L5.74153 7.3791C6.92783 9.46539 8.65524 11.1928 10.7415 12.3791L11.7999 11.3208C12.0264 11.0967 12.3125 10.9423 12.6241 10.8758C12.9358 10.8094 13.2599 10.8336 13.5582 10.9458C14.3143 11.2279 15.0998 11.4236 15.8999 11.5291C16.3047 11.5862 16.6744 11.7901 16.9386 12.102C17.2029 12.4139 17.3433 12.8121 17.3332 13.2208Z" stroke="#CCCCCC" stroke-linecap="round" stroke-linejoin="round"/>
</svg>
