<svg width="36" height="36" viewBox="0 0 36 36" fill="none" xmlns="http://www.w3.org/2000/svg">
<g clip-path="url(#clip0_0_145)">
<path d="M35.6705 0.329577C35.4595 0.118629 35.1734 0.00012207 34.875 0.00012207C34.5767 0.00012207 34.2906 0.118629 34.0796 0.329577L32.0414 2.36801L30.7696 1.0969C30.6584 0.98543 30.525 0.898618 30.378 0.842106C30.231 0.785595 30.0738 0.760649 29.9165 0.76889L18.0184 1.37941C17.7403 1.39363 17.4774 1.51051 17.2806 1.70742L0.329582 18.6584C0.118612 18.8693 9.15527e-05 19.1555 9.15527e-05 19.4539C9.15527e-05 19.7522 0.118612 20.0384 0.329582 20.2493L15.7507 35.6705C15.9617 35.8815 16.2478 36 16.5462 36C16.8446 36 17.1307 35.8815 17.3417 35.6705L34.2926 18.7195C34.4895 18.5227 34.6064 18.2598 34.6206 17.9818L35.2316 6.0836C35.2396 5.92637 35.2146 5.76919 35.1581 5.62224C35.1016 5.47529 35.0149 5.34183 34.9036 5.2305L33.632 3.95897L35.6705 1.92047C35.8814 1.70949 35.9999 1.42337 35.9999 1.12502C35.9999 0.826679 35.8814 0.540552 35.6705 0.329577ZM32.9589 6.46786L32.3958 17.4344L16.5462 33.2841L2.71606 19.4539L18.5657 3.60424L29.5324 3.04118L30.4501 3.95897L28.125 6.28407C27.3181 5.85791 26.385 5.73535 25.4954 5.93864C24.6057 6.14193 23.8185 6.65758 23.2767 7.39193C22.7349 8.12628 22.4745 9.0306 22.5428 9.94062C22.6111 10.8506 23.0035 11.706 23.6488 12.3513C24.2941 12.9966 25.1494 13.389 26.0594 13.4573C26.9694 13.5255 27.8738 13.2651 28.6081 12.7233C29.3425 12.1816 29.8581 11.3943 30.0614 10.5047C30.2647 9.61505 30.1421 8.68199 29.716 7.87503L32.0414 5.54993L32.9589 6.46786ZM27.4494 8.55073C27.7051 8.80636 27.8642 9.14273 27.8997 9.50254C27.9351 9.86234 27.8447 10.2233 27.6439 10.5239C27.4431 10.8246 27.1442 11.0463 26.7982 11.1512C26.4522 11.2562 26.0806 11.2379 25.7465 11.0996C25.4125 10.9612 25.1368 10.7114 24.9663 10.3925C24.7959 10.0736 24.7413 9.70556 24.8118 9.35096C24.8824 8.99636 25.0737 8.67719 25.3532 8.44783C25.6327 8.21847 25.983 8.09312 26.3446 8.09314C26.7589 8.09331 27.1562 8.25782 27.4494 8.55059V8.55073ZM22.6921 18.9162C22.7976 19.0204 22.8815 19.1445 22.9389 19.2813C22.9962 19.418 23.026 19.5648 23.0265 19.7131C23.0269 19.8614 22.998 20.0084 22.9415 20.1455C22.8849 20.2826 22.8018 20.4071 22.697 20.512C22.5921 20.6169 22.4675 20.7 22.3304 20.7565C22.1933 20.8131 22.0464 20.842 21.8981 20.8415C21.7497 20.8411 21.603 20.8113 21.4662 20.7539C21.3295 20.6965 21.2054 20.6127 21.1012 20.5072L15.4929 14.8993C15.3874 14.795 15.3035 14.6709 15.2461 14.5342C15.1888 14.3974 15.159 14.2507 15.1585 14.1024C15.1581 13.954 15.187 13.8071 15.2435 13.67C15.3001 13.5329 15.3832 13.4083 15.488 13.3034C15.5929 13.1986 15.7175 13.1155 15.8546 13.0589C15.9917 13.0024 16.1386 12.9735 16.287 12.9739C16.4353 12.9744 16.582 13.0042 16.7188 13.0615C16.8556 13.1189 16.9796 13.2028 17.0839 13.3083L22.6921 18.9162ZM18.3964 23.2119C18.502 23.3161 18.5858 23.4402 18.6432 23.5769C18.7006 23.7137 18.7303 23.8605 18.7308 24.0088C18.7312 24.1571 18.7024 24.304 18.6458 24.4411C18.5893 24.5782 18.5062 24.7028 18.4013 24.8077C18.2964 24.9126 18.1718 24.9957 18.0347 25.0522C17.8976 25.1088 17.7507 25.1376 17.6024 25.1372C17.4541 25.1367 17.3073 25.107 17.1705 25.0496C17.0338 24.9922 16.9097 24.9084 16.8055 24.8028L11.1972 19.1946C10.9884 18.9832 10.8716 18.6977 10.8725 18.4005C10.8734 18.1033 10.9919 17.8186 11.202 17.6084C11.4122 17.3983 11.6969 17.2798 11.9941 17.2789C12.2913 17.278 12.5768 17.3947 12.7882 17.6036L18.3964 23.2119Z" fill="#F5C74D"/>
</g>
<defs>
<clipPath id="clip0_0_145">
<rect width="36" height="36" fill="white"/>
</clipPath>
</defs>
</svg>
