<svg width="36" height="36" viewBox="0 0 36 36" fill="none" xmlns="http://www.w3.org/2000/svg">
<g clip-path="url(#clip0_0_137)">
<path d="M34.0266 5.1767C32.7607 3.90989 31.0431 3.19839 29.2522 3.19899C27.462 3.19477 25.7444 3.90604 24.4813 5.17451L15.7658 13.8901C14.0414 15.6172 13.3821 18.1399 14.0412 20.4899C14.2342 21.174 14.9452 21.5722 15.6294 21.3792C16.3135 21.1862 16.7116 20.4752 16.5187 19.7911C16.1124 18.3378 16.52 16.7784 17.5856 15.71L26.3011 6.99567C27.9306 5.36583 30.5728 5.36553 32.2026 6.99507C33.8325 8.62453 33.8328 11.2668 32.2033 12.8966L23.4878 21.6121C22.9166 22.184 22.1912 22.5772 21.4003 22.7434C20.7044 22.8883 20.2577 23.5699 20.4026 24.2657C20.5272 24.8641 21.0554 25.2923 21.6666 25.2904C21.7566 25.2905 21.8463 25.281 21.9343 25.2621C23.2126 24.9925 24.3847 24.3567 25.3076 23.432L34.0232 14.7178C36.6588 12.084 36.6603 7.81236 34.0266 5.1767Z" fill="#F5C74D"/>
<path d="M21.9219 15.5452C21.7289 14.8611 21.0179 14.4629 20.3338 14.6559C19.6496 14.8489 19.2515 15.5599 19.4444 16.2441C19.8508 17.6973 19.4431 19.2567 18.3775 20.3251L9.66193 29.0407C8.03247 30.6705 5.39025 30.6708 3.76041 29.0413C2.13056 27.4118 2.13026 24.7696 3.75973 23.1398L12.4753 14.4229C13.0456 13.8511 13.7701 13.458 14.5603 13.2916C15.2573 13.1522 15.7093 12.4742 15.5699 11.7772C15.4304 11.0803 14.7524 10.6282 14.0555 10.7676C14.047 10.7694 14.0385 10.7711 14.0301 10.773C12.7516 11.0429 11.5791 11.6787 10.6555 12.6031L1.93993 21.3187C-0.674996 23.974 -0.642268 28.2463 2.013 30.8612C4.63931 33.4475 8.85504 33.4478 11.4817 30.8618L20.1973 22.1449C21.9217 20.4178 22.581 17.8951 21.9219 15.5452Z" fill="#F5C74D"/>
</g>
<defs>
<clipPath id="clip0_0_137">
<rect width="36" height="36" fill="white"/>
</clipPath>
</defs>
</svg>
