<svg width="35" height="33" viewBox="0 0 35 33" fill="none" xmlns="http://www.w3.org/2000/svg">
<path d="M32.6074 0.640503H2.39258C1.07331 0.640503 0 1.71381 0 3.03308V22.8055C0 24.1248 1.07331 25.1981 2.39258 25.1981H16.5088V27.9075L5.11861 30.331C4.5647 30.4489 4.21121 30.9934 4.32906 31.5474C4.4316 32.0294 4.85721 32.3596 5.33094 32.3595C5.40162 32.3595 5.47347 32.3522 5.54538 32.3369L10.2592 31.3339L17.5145 29.7902L24.8765 31.3339L29.6626 32.3375C30.2167 32.4537 30.7604 32.0987 30.8766 31.5443C30.9928 30.9902 30.6378 30.4466 30.0835 30.3304L18.5596 27.9139V25.198H32.6074C33.9267 25.198 35 24.1247 35 22.8054V3.03308C35 1.71388 33.9267 0.640503 32.6074 0.640503ZM32.6074 23.1473H2.39258C2.20411 23.1473 2.05078 22.994 2.05078 22.8055V20.7015H32.9492V22.8055C32.9492 22.994 32.7959 23.1473 32.6074 23.1473ZM2.05078 18.6507V3.03308C2.05078 2.84461 2.20411 2.69128 2.39258 2.69128H32.6074C32.7959 2.69128 32.9492 2.84461 32.9492 3.03308V18.6507H2.05078Z" fill="#F5C74D"/>
</svg>
