<svg width="28" height="28" viewBox="0 0 28 28" fill="none" xmlns="http://www.w3.org/2000/svg">
<circle cx="14" cy="14" r="14" fill="#F5F5F5"/>
<path d="M21.3337 7.76208C20.6952 8.21292 19.9884 8.55774 19.2403 8.78327C18.8388 8.32107 18.3052 7.99348 17.7117 7.8448C17.1181 7.69611 16.4933 7.73351 15.9217 7.95194C15.3501 8.17036 14.8593 8.55927 14.5156 9.06607C14.172 9.57287 13.9921 10.1731 14.0003 10.7856V11.453C12.8287 11.4834 11.6678 11.2233 10.621 10.6958C9.57415 10.1683 8.67387 9.38973 8.00033 8.42952C8.00033 8.42952 5.33366 14.4365 11.3337 17.1062C9.96068 18.0393 8.3251 18.5072 6.66699 18.4411C12.667 21.7783 20.0003 18.4411 20.0003 10.7656C19.9997 10.5796 19.9819 10.3942 19.947 10.2116C20.6274 9.5398 21.1075 8.69163 21.3337 7.76208V7.76208Z" stroke="black" stroke-opacity="0.8" stroke-linecap="round" stroke-linejoin="round"/>
</svg>
