<svg width="35" height="29" viewBox="0 0 35 29" fill="none" xmlns="http://www.w3.org/2000/svg">
<path d="M17.4317 28.8896C18.6776 28.8896 19.6875 27.8796 19.6875 26.6337C19.6875 25.3879 18.6776 24.3779 17.4317 24.3779C16.1858 24.3779 15.1758 25.3879 15.1758 26.6337C15.1758 27.8796 16.1858 28.8896 17.4317 28.8896Z" fill="#F5C74D"/>
<path d="M34.633 7.58639C30.1397 2.76549 24.0553 0.11042 17.4998 0.110352C10.9448 0.11042 4.86034 2.76549 0.36702 7.58639C-0.147726 8.13873 -0.117306 9.00389 0.435037 9.5187C0.987448 10.0334 1.85254 10.0031 2.36735 9.45069C6.33766 5.19081 11.7118 2.84479 17.5002 2.84472C23.2882 2.84479 28.6624 5.19081 32.6327 9.45069C32.9019 9.73957 33.267 9.88572 33.6331 9.88572C33.9669 9.88572 34.3015 9.76418 34.565 9.5187C35.1173 9.00382 35.1478 8.13873 34.633 7.58639Z" fill="#F5C74D"/>
<path d="M29.613 13.2324C26.2917 9.88598 21.9899 8.04308 17.5 8.04321C13.0092 8.04328 8.7073 9.88625 5.38694 13.2326C4.85511 13.7686 4.85846 14.6342 5.39446 15.1661C5.93047 15.6979 6.79611 15.6945 7.32794 15.1585C10.131 12.3335 13.7435 10.7777 17.5 10.7776C21.2556 10.7775 24.8681 12.3334 27.6722 15.1587C27.9395 15.4279 28.291 15.5627 28.6426 15.5627C28.9907 15.5627 29.339 15.4305 29.6058 15.1659C30.1417 14.634 30.1449 13.7684 29.613 13.2324Z" fill="#F5C74D"/>
<path d="M24.1409 18.8949C22.3622 17.1327 19.8126 16.038 17.4869 16.038C17.4866 16.038 17.4861 16.038 17.4858 16.038H17.3873C17.3869 16.038 17.3867 16.038 17.3863 16.038C15.0605 16.038 12.5107 17.1327 10.7321 18.8949C10.1957 19.4263 10.1917 20.292 10.7231 20.8284C10.9905 21.0982 11.3424 21.2333 11.6944 21.2333C12.0421 21.2333 12.39 21.1015 12.6565 20.8374C13.9227 19.5829 15.7792 18.7724 17.3865 18.7724C17.3867 18.7724 17.3869 18.7724 17.3871 18.7724H17.4861C17.4863 18.7724 17.4864 18.7724 17.4867 18.7724C19.0937 18.7724 20.9503 19.5829 22.2164 20.8374C22.7527 21.3688 23.6185 21.3649 24.1499 20.8284C24.6814 20.292 24.6773 19.4263 24.1409 18.8949Z" fill="#F5C74D"/>
</svg>
